<?xml version="1.0" standalone="no"?>
<!DOCTYPE svg PUBLIC "-//W3C//DTD SVG 20010904//EN"
 "http://www.w3.org/TR/2001/REC-SVG-20010904/DTD/svg10.dtd">
<svg version="1.0" xmlns="http://www.w3.org/2000/svg"
 width="974.000000pt" height="974.000000pt" viewBox="0 0 974.000000 974.000000"
 preserveAspectRatio="xMidYMid meet">
<metadata>
Created by potrace 1.11, written by Peter Selinger 2001-2013
</metadata>
<g transform="translate(0.000000,974.000000) scale(0.100000,-0.100000)"
fill="#000000" stroke="none">
<path d="M591 9060 l-204 -5 0 -693 c0 -381 3 -696 7 -700 4 -3 238 -7 519 -7
450 -1 519 -3 568 -18 31 -9 62 -24 69 -32 7 -8 17 -15 21 -15 20 0 100 -92
158 -181 33 -52 65 -100 71 -106 6 -7 15 -24 20 -38 5 -14 14 -25 20 -25 5 0
10 -5 10 -12 0 -7 11 -28 24 -47 74 -110 176 -273 176 -280 0 -5 4 -11 8 -13
4 -1 19 -21 32 -43 13 -22 52 -83 86 -135 34 -52 62 -99 62 -104 0 -5 4 -12 9
-15 13 -9 103 -150 103 -161 0 -6 4 -10 9 -10 5 0 14 -13 21 -29 6 -16 20 -38
31 -50 11 -12 17 -21 14 -21 -3 0 -1 -6 5 -12 15 -18 97 -145 123 -190 11 -21
24 -38 29 -38 4 0 8 -4 8 -10 0 -8 37 -71 70 -120 37 -55 161 -248 167 -259 9
-19 89 -143 102 -158 6 -7 11 -15 11 -18 0 -3 9 -18 19 -33 10 -15 52 -79 92
-142 107 -170 139 -220 176 -275 18 -28 33 -56 33 -63 0 -6 4 -12 8 -12 4 0
16 -15 27 -32 18 -32 59 -96 179 -282 71 -109 123 -146 201 -141 23 1 54 9 70
18 32 16 95 70 95 80 0 10 142 221 154 229 6 4 7 8 2 8 -5 0 -2 8 6 18 9 9 44
60 79 112 34 52 68 98 73 102 6 4 7 8 2 8 -5 0 -2 8 6 18 9 9 44 60 79 112 34
52 67 98 73 102 6 4 7 8 2 8 -5 0 -2 8 6 18 26 29 188 274 188 283 0 5 4 9 9
9 5 0 13 9 16 20 3 11 12 26 18 32 18 19 171 249 179 270 4 10 12 18 18 18 6
0 9 4 6 9 -4 5 -3 11 2 13 4 1 25 31 47 65 22 35 43 63 48 63 4 0 7 7 7 15 0
28 15 15 57 -48 76 -113 118 -172 126 -175 4 -2 7 -9 7 -16 0 -7 9 -21 20 -31
11 -10 20 -24 20 -31 0 -7 3 -14 8 -16 4 -1 62 -82 128 -178 67 -96 137 -197
155 -224 19 -26 39 -55 44 -65 6 -9 13 -18 16 -21 3 -3 34 -48 70 -100 35 -52
66 -97 69 -100 3 -3 17 -23 32 -45 24 -37 65 -96 161 -232 20 -29 37 -55 37
-58 0 -3 9 -16 21 -29 12 -13 20 -27 19 -31 -1 -4 3 -11 8 -14 5 -3 27 -31 48
-62 59 -84 87 -115 125 -135 42 -21 104 -30 114 -15 3 6 14 11 24 11 15 0 67
49 99 95 27 37 142 228 142 235 0 4 7 10 15 14 8 3 15 10 15 16 0 10 58 110
70 120 8 7 212 334 225 360 5 11 13 20 17 20 5 0 8 7 8 15 0 8 5 15 10 15 6 0
10 5 10 10 0 6 12 29 28 52 36 54 41 62 82 127 50 80 57 92 76 129 10 17 21
32 26 32 4 0 8 7 8 15 0 8 5 15 10 15 6 0 10 4 10 10 0 8 128 214 181 292 11
15 19 32 19 38 0 5 5 10 10 10 6 0 10 4 10 9 0 8 58 102 80 128 6 7 10 14 10
17 0 6 82 139 90 146 3 3 19 28 35 55 15 28 31 52 34 55 3 3 13 16 21 30 27
47 189 305 197 315 5 6 31 46 58 90 27 44 69 112 94 150 25 39 45 73 43 78 -1
4 2 7 7 7 4 0 19 20 32 45 13 25 27 45 31 45 5 0 8 5 8 11 0 16 129 201 151
217 10 7 24 18 31 25 15 15 87 42 138 53 19 4 258 8 530 10 272 1 502 3 510 3
14 1 16 79 15 699 l0 697 -40 5 c-22 3 -54 3 -72 -1 -18 -4 -34 -5 -37 -2 -4
4 -440 6 -462 2 -5 -1 -13 -1 -19 0 -11 2 -1160 0 -1187 -2 -10 -1 -18 -5 -18
-9 0 -4 -8 -8 -18 -8 -22 0 -96 -53 -134 -95 -15 -16 -54 -68 -85 -115 -32
-47 -62 -88 -68 -92 -7 -5 -7 -8 0 -8 6 0 5 -3 -1 -8 -6 -4 -28 -32 -48 -62
-20 -30 -63 -95 -95 -145 -33 -49 -64 -95 -69 -101 -5 -5 -22 -30 -38 -55 -16
-24 -31 -46 -34 -49 -3 -3 -30 -43 -60 -90 -30 -47 -57 -87 -60 -90 -10 -9
-185 -271 -198 -295 -7 -14 -18 -25 -24 -25 -6 0 -8 -3 -5 -6 4 -4 -6 -23 -22
-43 -15 -20 -34 -47 -41 -61 -7 -14 -16 -27 -20 -30 -4 -3 -29 -39 -55 -80
-27 -41 -51 -77 -54 -80 -14 -12 -51 -70 -51 -80 0 -5 -4 -10 -9 -10 -5 0 -11
-8 -15 -17 -3 -10 -21 -38 -40 -63 -19 -25 -35 -50 -35 -57 -1 -6 -5 -13 -9
-15 -4 -1 -30 -36 -57 -76 -26 -40 -52 -71 -57 -70 -5 2 -9 7 -8 12 1 5 -2 12
-7 15 -14 11 -93 129 -93 140 0 6 -4 11 -10 11 -5 0 -10 5 -10 10 0 6 -9 20
-20 32 -10 11 -26 36 -35 54 -9 19 -20 34 -26 34 -6 0 -7 5 -4 10 3 6 1 10 -4
10 -6 0 -11 7 -11 15 0 8 -4 15 -10 15 -5 0 -10 7 -10 15 0 8 -4 15 -10 15 -5
0 -10 4 -10 8 0 5 -37 65 -82 133 -46 69 -126 190 -178 270 -52 79 -98 146
-101 149 -4 3 -9 12 -11 19 -2 8 -11 25 -22 37 -10 13 -24 32 -30 43 -6 11
-30 47 -53 81 -24 34 -43 66 -43 71 0 5 -5 9 -11 9 -5 0 -8 4 -5 9 4 5 3 11
-2 13 -10 4 -144 205 -142 214 1 4 -3 10 -8 13 -5 3 -52 71 -105 151 -120 184
-135 199 -191 196 -57 -3 -59 -5 -185 -201 -28 -44 -55 -87 -61 -95 -6 -8 -29
-46 -53 -83 -23 -37 -89 -142 -147 -233 -58 -90 -112 -175 -120 -188 -8 -14
-44 -70 -80 -125 -36 -56 -70 -109 -75 -119 -6 -9 -24 -37 -40 -62 -16 -25
-34 -53 -40 -62 -43 -74 -180 -284 -186 -286 -5 -2 -9 -8 -9 -12 0 -5 -30 -56
-67 -115 -38 -58 -86 -134 -108 -169 l-41 -64 -84 122 c-46 66 -88 123 -92
124 -4 2 -8 9 -8 16 0 7 -9 21 -20 31 -11 10 -20 24 -20 31 0 7 -4 14 -8 16
-4 2 -50 65 -102 142 -52 76 -100 143 -105 150 -6 6 -28 38 -50 71 -22 33 -43
62 -46 65 -3 3 -14 20 -24 38 -11 17 -23 32 -27 32 -4 0 -8 6 -8 13 -1 6 -14
27 -30 46 -16 19 -27 38 -24 43 3 4 1 8 -4 8 -4 0 -46 55 -92 123 -46 67 -88
124 -92 125 -4 2 -8 8 -8 14 0 9 -14 28 -60 85 -6 7 -10 16 -10 21 0 5 -9 17
-20 27 -11 10 -17 22 -14 26 3 5 2 9 -3 9 -4 0 -24 24 -43 53 -19 28 -37 54
-40 57 -3 3 -30 41 -60 85 -29 44 -57 82 -62 83 -4 2 -8 8 -8 13 0 6 -4 15
-10 22 -5 7 -35 47 -67 90 -31 42 -59 77 -63 77 -3 0 -16 9 -28 20 -31 29 -83
56 -122 63 -31 6 -629 12 -655 7 -5 -1 -14 -2 -20 -1 -13 2 -449 3 -461 0 -5
-1 -11 -1 -14 0 -14 5 -280 5 -459 1z"/>
<path d="M7536 5353 c-1 -1 -22 -4 -48 -7 -154 -19 -336 -149 -424 -303 -32
-54 -178 -286 -189 -297 -5 -7 -11 -18 -13 -26 -2 -8 -7 -17 -11 -20 -4 -3
-21 -27 -37 -53 -16 -27 -36 -59 -44 -72 -8 -12 -28 -46 -45 -74 -16 -28 -33
-51 -37 -51 -5 0 -8 -4 -8 -10 0 -8 -61 -109 -87 -146 -5 -5 -13 -19 -20 -30
-43 -71 -177 -284 -295 -469 -17 -27 -47 -75 -66 -105 -67 -106 -77 -120 -84
-120 -4 0 -24 26 -45 58 -20 31 -40 59 -43 62 -3 3 -25 34 -49 70 -24 36 -62
92 -85 125 -22 33 -44 62 -48 63 -5 2 -8 8 -8 13 0 5 -16 31 -35 57 -19 26
-104 148 -189 272 -85 124 -160 231 -166 238 -6 6 -8 12 -5 12 4 0 0 6 -7 13
-7 8 -53 73 -103 146 -49 73 -100 144 -112 159 -13 15 -23 32 -23 39 0 6 -3
13 -8 15 -4 2 -36 46 -72 98 -35 52 -68 97 -72 98 -4 2 -8 8 -8 13 0 6 -15 30
-32 54 -18 24 -53 73 -78 109 -25 36 -48 66 -51 66 -3 0 -55 -73 -115 -162
-60 -90 -112 -164 -116 -166 -5 -2 -8 -9 -8 -15 0 -7 -14 -28 -30 -47 -16 -19
-30 -40 -30 -47 0 -6 -3 -13 -7 -15 -5 -1 -30 -37 -58 -78 -27 -41 -53 -79
-58 -85 -40 -52 -147 -216 -147 -225 0 -6 -4 -8 -10 -5 -5 3 -10 -1 -10 -9 0
-9 -5 -16 -11 -16 -5 0 -8 -4 -4 -9 3 -5 1 -12 -4 -15 -13 -8 -91 -124 -91
-135 0 -5 -4 -11 -8 -13 -9 -4 -242 -345 -242 -354 0 -9 129 -214 151 -239 9
-11 18 -25 20 -31 4 -10 135 -218 280 -442 43 -68 79 -128 79 -133 0 -5 4 -9
9 -9 5 0 13 -10 17 -22 4 -13 9 -25 13 -28 7 -6 39 -54 107 -163 27 -42 73
-114 101 -158 29 -44 53 -85 53 -90 0 -5 5 -9 10 -9 6 0 10 -5 10 -11 0 -6 11
-25 25 -43 14 -18 25 -38 25 -44 0 -7 5 -12 10 -12 6 0 10 -5 10 -10 0 -12 41
-73 53 -78 4 -2 5 -8 1 -13 -3 -5 -2 -9 3 -9 4 0 14 -13 21 -28 6 -16 21 -38
32 -50 11 -12 20 -24 20 -27 0 -3 17 -32 38 -63 21 -32 41 -64 45 -72 7 -16
150 -238 164 -255 4 -5 33 -50 63 -100 30 -49 58 -91 62 -93 4 -2 8 -10 8 -18
0 -8 5 -14 10 -14 6 0 10 -4 10 -9 0 -6 13 -29 28 -53 16 -24 43 -65 60 -93
17 -27 36 -55 42 -62 5 -7 10 -15 10 -19 0 -4 11 -22 25 -40 14 -18 25 -35 25
-38 0 -5 84 -134 100 -153 5 -7 10 -14 10 -17 0 -5 45 -77 146 -233 19 -28 34
-56 34 -62 0 -6 4 -11 8 -11 5 0 19 -19 32 -43 13 -23 28 -46 32 -52 4 -5 26
-33 48 -62 103 -134 190 -103 299 107 19 36 40 72 47 81 8 8 14 19 14 24 0 5
22 48 50 97 27 48 51 93 52 100 2 7 5 15 8 18 15 15 70 113 70 126 0 8 3 14 8
14 4 0 29 42 56 93 26 50 56 106 65 122 10 17 37 66 61 110 24 44 48 89 54
100 6 11 16 23 21 27 6 4 7 8 2 8 -4 0 0 12 9 26 19 28 36 59 74 131 14 26 29
51 35 55 5 4 6 8 2 8 -5 0 1 13 12 29 12 16 21 32 21 35 0 3 13 27 28 53 16
26 52 93 82 148 29 55 56 105 60 110 4 6 34 60 65 120 32 61 64 117 72 126 7
8 13 18 13 21 0 3 45 87 100 188 55 100 100 185 100 190 0 5 6 15 13 22 7 7
24 36 38 63 72 136 103 190 110 193 5 2 9 11 9 21 0 9 4 21 9 27 5 5 26 41 47
79 20 39 48 88 61 110 12 22 33 60 45 85 13 25 25 47 28 50 3 3 12 19 20 35 8
17 44 59 80 95 65 66 118 98 210 128 8 3 274 6 590 8 316 1 587 3 601 3 25 1
26 3 28 79 1 42 1 82 1 87 0 6 -1 49 -2 98 -2 48 1 87 5 87 4 0 4 8 0 18 -5 9
-8 28 -7 42 4 51 4 87 2 173 -2 48 -1 87 2 87 3 0 6 9 6 20 0 11 -3 20 -6 20
-4 0 -5 130 -1 235 1 17 0 69 -1 118 -2 48 -1 87 2 87 3 0 6 9 6 20 0 11 -3
20 -6 20 -3 0 -5 53 -5 117 l0 118 -908 0 c-500 0 -910 -1 -911 -2z"/>
<path d="M6725 1016 c-88 -40 -132 -143 -101 -236 34 -100 165 -152 259 -104
138 71 137 269 -3 338 -35 18 -119 19 -155 2z m155 -33 c46 -30 63 -57 74
-116 2 -12 5 -26 7 -32 4 -15 -27 -81 -48 -103 -40 -42 -109 -59 -167 -40 -27
9 -95 69 -97 87 -2 21 -8 43 -12 47 -9 10 14 88 35 117 43 60 146 80 208 40z"/>
<path d="M6732 846 c2 -65 7 -110 13 -109 5 2 10 21 10 43 1 72 33 76 76 9 17
-27 37 -49 45 -49 19 0 18 12 -3 36 -19 21 -51 74 -38 62 12 -11 47 29 50 56
5 38 -24 57 -94 60 l-62 2 3 -110z m115 72 c16 -27 13 -48 -10 -53 -52 -12
-77 -13 -78 -4 -4 30 -5 55 -2 62 7 12 81 8 90 -5z"/>
</g>
</svg>
